<svg id="Calque_1" data-name="Calque 1" xmlns="http://www.w3.org/2000/svg" viewBox="0 0 920 920"><title>logo3</title><path d="M499.93,863.53,501,894.3l-6.37.23a31.9,31.9,0,0,1-1-7.25c-2.45,4.16-7.31,8.35-17.09,8.71-16.35.58-25.56-11.49-26.14-27.6-.61-16.95,8.34-30,25.56-30.67,13.42-.49,22,6.54,23.95,16.51l-8.4.31c-2-5.79-6.41-10.26-15.46-9.93-12.86.47-17.34,11-16.9,23.07.41,11.3,5.77,21.75,18.26,21.3,12.26-.44,14.88-8.76,14.57-17.47l0-.58-15.27.56-.26-7.12ZM590,816.22l38.34,46.6L620,865.76l-11-13.37-21,7.32L587.87,877,580,879.7l.22-60.05Zm14.63,30.13c-9.57-11.84-14.89-18.31-17.54-22.1l-.07,0c.32,5.13.38,15.11.51,28ZM660.77,811l-24,12.21-7.95-15.62,25.6-13-3.22-6.35-33,16.77,25.67,50.47,7.36-3.74L640,829.56l24-12.21Zm-100,62c.73,3.82,1.49,8.59,2.84,10.8l-8,1.52c-1.46-2.22-2.26-6.52-3.28-11.87l-.21-1.12c-1.45-7.57-4.19-10.5-14-8.64l-10.72,2L532,889.79l-8.15,1.56-10.61-55.63,22.25-4.24c11.56-2.2,18.94,2.91,20.59,11.57,1.39,7.28-1.93,12.38-6.72,14.86,4.42.38,9,2.91,10.89,12.62Zm-13-27.58c-1.08-5.65-5.37-8.14-12.61-6.76L522.74,841l3.41,17.86,11.71-2.23C546,855.09,548.93,851.35,547.79,845.4ZM821,685.75c3.19,2.22,7.06,5.1,9.57,5.74l-4.65,6.66c-2.59-.57-6.17-3.09-10.63-6.21l-.93-.65c-6.32-4.42-10.33-4.61-16,3.56L792,703.79l20.1,14-4.76,6.81L761,692.2l13-18.57c6.75-9.64,15.6-11.13,22.83-6.08,6.07,4.24,7.26,10.21,5.55,15.33,3.44-2.82,8.51-4.23,16.62,1.44Zm-28.54-10.7c-4.71-3.3-9.53-2.09-13.75,4l-7.25,10.39,14.9,10.41,6.83-9.77C797.9,683.23,797.39,678.52,792.42,675.05Zm22.29-58.75L808.38,613,788,652.74l6.33,3.26,8.26-16.09,44,22.63,3.86-7.52-44-22.63Zm85.37-187.73v44.48a16.72,16.72,0,0,1-.28,2.93,439.16,439.16,0,0,1-27.22,138h0l-.14.37c-1,2.62-2,5.23-3,7.82l-.07,0-.06.17L814,595.75l.16-.35h0a375.66,375.66,0,0,0,23.57-105.57H487.24a5.35,5.35,0,0,0-4.81,3L323.66,814.35a374.79,374.79,0,0,0,111.89,24.53v0h.19l-4.28,61.18-8.62-.6v0C190.5,880.73,12,685.16,20.2,445.13,28.25,208.93,222.07,19.92,460,19.92c173.14,0,322.91,100.11,394.75,245.65H839.63l-54.5,0v0h0a381.75,381.75,0,0,0-127-128.5L514.16,428.57H900.08ZM72.14,460.47C72.14,246.28,245.77,72.65,460,72.65c139.53,0,261.84,73.7,330.16,184.29h24.37A408.88,408.88,0,1,0,425.05,867.73l1.46-20.88C228,829.89,72.14,663.38,72.14,460.47ZM460,81.19a379.18,379.18,0,0,0-267.9,647.39q12.72,12.75,26.47,24.11L545.36,90.86A378.93,378.93,0,0,0,460,81.19ZM603.34,109.7c.06-.12.13-.22.19-.34q-14.24-5.83-28.83-10.46L242.78,771.16q12.54,8.8,25.74,16.58ZM844.07,600.44a406.52,406.52,0,0,0,24.61-140q0-11.69-.66-23.26H847.08c.45,7.7.7,15.45.7,23.26a387.24,387.24,0,0,1-22.68,131Zm-103,114.66,55.6,23.48-6.1,6.51-16-6.74-15.19,16.24,7.91,15.32-5.7,6.08L734,722.7Zm1.1,8.52c2.67,4.4,7.36,13.2,13.48,24.59L768,735c-14-6-21.68-9.29-25.8-11.43Zm-7.53,54.2c1.66,5.18,2,11.38-4.71,16.73-9.91,7.89-20.59,1.81-27.33-6.66-7-8.79-10-20.38-.56-27.87,6.82-5.43,12.72-4.25,17.81-.86l6.58-5.23c-7.16-6.4-17.72-8-28.43.49-13.63,10.84-11.69,27.08-2.1,39.14,10,12.54,24.64,17.26,38.05,6.6,10.25-8.16,11.46-18.39,7.3-27.59Zm-74.5,4.41,30.33,47.82,7.1-4.5-30.33-47.83Z"/></svg>